Format                           : MPEG Video
Format version                   : Version 2
Format profile                   : Main@High
Format settings, BVOP            : Yes
Format settings, Matrix          : Default
Format settings, GOP             : M=3, N=15
Codec ID                         : 2
Duration                         : 40mn 31s
Bit rate mode                    : Constant
Bit rate                         : 13.8 Mbps
Width                            : 1 920 pixels
Height                           : 1 080 pixels
Display aspect ratio             : 16:9
Frame rate                       : 29.970 fps
Standard                         : Component
Color space                      : YUV
Chroma subsampling               : 4:2:0
Bit depth                        : 8 bits
Scan type                        : Interlaced
Scan order                       : Top Field First
Compression mode                 : Lossy
Bits/(Pixel*Frame)               : 0.223
Stream size                      : 3.83 GiB (92%)

Format                           : AC-3
Format/Info                      : Audio Coding 3
Mode extension                   : CM (complete main)
Codec ID                         : 129
Duration                         : 40mn 30s
Bit rate mode                    : Constant
Bit rate                         : 384 Kbps
Channel(s)                       : 6 channels
Channel positions                : Front: L C R, Side: L R, LFE
Sampling rate                    : 48.0 KHz
Bit depth                        : 16 bits
Compression mode                 : Lossy
Video delay                      : -46ms
Stream size                      : 111 MiB (3%)
Language                         : English